<?xml version="1.0" encoding="UTF-8" standalone="no"?>
<!-- Created with Inkscape (http://www.inkscape.org/) -->

<svg
   width="161.94493mm"
   height="107.8464mm"
   viewBox="0 0 161.94493 107.8464"
   version="1.1"
   id="svg9797"
   inkscape:version="1.1.2 (0a00cf5339, 2022-02-04)"
   sodipodi:docname="pergamino.svg"
   xmlns:inkscape="http://www.inkscape.org/namespaces/inkscape"
   xmlns:sodipodi="http://sodipodi.sourceforge.net/DTD/sodipodi-0.dtd"
   xmlns="http://www.w3.org/2000/svg"
   xmlns:svg="http://www.w3.org/2000/svg">
  <sodipodi:namedview
     id="namedview9799"
     pagecolor="#ffffff"
     bordercolor="#666666"
     borderopacity="1.0"
     inkscape:pageshadow="2"
     inkscape:pageopacity="0.0"
     inkscape:pagecheckerboard="0"
     inkscape:document-units="mm"
     showgrid="false"
     inkscape:zoom="1.2953002"
     inkscape:cx="182.96917"
     inkscape:cy="289.50818"
     inkscape:window-width="1865"
     inkscape:window-height="1031"
     inkscape:window-x="55"
     inkscape:window-y="21"
     inkscape:window-maximized="1"
     inkscape:current-layer="layer1" />
  <defs
     id="defs9794" />
  <g
     inkscape:label="Layer 1"
     inkscape:groupmode="layer"
     id="layer1"
     transform="translate(-17.806824,-77.923575)">
    <path
       style="fill:#d3b889;fill-opacity:1;stroke:none;stroke-width:0.264583px;stroke-linecap:butt;stroke-linejoin:miter;stroke-opacity:1"
       d="m 19.228727,78.57348 c 5.542688,1.09305 14.629358,-0.60739 17.739962,0.96774 0.490676,7.37143 7.183317,-2.66078 11.90195,-0.78882 5.568387,1.87194 11.617503,-0.7231 17.409162,-0.42342 4.538516,-1.40465 10.835498,1.31875 14.477878,0.98152 4.933184,3.40326 11.835399,-0.54372 17.579534,1.93373 6.115887,-2.63394 12.692687,-1.8681 19.136417,-1.73863 5.41848,2.36921 12.68337,-0.89462 16.94653,3.90668 3.09232,-5.72714 10.89824,-3.31291 16.73169,-3.8598 6.36688,0.82984 12.76965,-0.16255 19.17971,0.23801 10.08224,-2.64356 2.17595,10.07263 7.13424,13.86152 2.66975,3.56613 4.17561,10.28943 -2.30084,10.81846 -3.98292,3.78081 -2.8441,8.96655 1.98163,11.76068 2.98907,4.69648 -4.74987,1.86207 -1.89515,7.00113 2.6064,3.60461 4.40976,6.28708 1.40912,10.4362 1.77299,6.88919 -1.83382,13.84245 1.41578,20.71507 0.76701,7.01597 1.03932,14.34278 -0.27507,21.51919 -0.28703,8.21072 -7.53524,8.23829 -13.82853,9.40897 -5.93904,1.49516 -12.01161,-1.14937 -18.03873,-1.12165 -6.50647,0.85089 -12.53847,-2.10983 -18.99014,-2.03522 -6.28855,-0.79302 -13.26627,0.13402 -19.11719,-1.89105 -2.88389,-4.8374 -6.39421,-8.23313 -5.08514,-0.54052 -0.10304,5.16172 -11.912294,4.54234 -13.247327,-0.24683 -1.796565,-8.78795 -6.78298,5.43344 -12.034053,3.01681 -7.184993,3.44719 -15.624768,2.50814 -23.464189,1.98287 -6.238805,-0.13974 -12.3169,-10.90988 -17.353833,-2.0904 -5.597885,-1.35859 -11.292157,-1.81018 -16.830095,-0.60973 -2.535463,-5.77323 -2.402191,-12.37167 -1.060069,-18.38014 -0.954376,-2.98756 5.182189,-9.02848 1.802011,-14.1227 5.636721,-2.86575 -5.154479,-7.08587 -1.739077,-12.26376 -0.03464,-6.62696 3.298711,-13.01487 2.500672,-19.52512 -2.501087,-5.98866 1.485614,-4.18381 0.762995,-10.07776 1.91721,-6.2185 -0.497833,-11.62265 -1.671922,-17.53469 -0.06015,-3.88696 0.325767,-7.74382 -1.177926,-11.29834 z"
       id="path9846" />
    <path
       style="fill:#d3b889;fill-opacity:0;stroke:none;stroke-width:0.665;stroke-linecap:butt;stroke-linejoin:round;stroke-opacity:0.08;stroke-miterlimit:4;stroke-dasharray:none"
       d="m 19.228728,78.57348 c 5.542688,1.09305 14.629358,-0.60739 17.739962,0.96774 0.490676,7.37143 7.183317,-2.66078 11.90195,-0.78882 5.568387,1.87194 11.617503,-0.7231 17.409162,-0.42342 4.538518,-1.40465 10.835498,1.31875 14.477878,0.98152 4.93318,3.40326 11.8354,-0.54372 17.57953,1.93373 6.11589,-2.63394 12.69269,-1.8681 19.13642,-1.73863 5.41848,2.36921 12.68337,-0.89462 16.94653,3.90668 3.09232,-5.72714 10.89824,-3.31291 16.73169,-3.8598 6.36688,0.82984 12.76965,-0.16255 19.17971,0.23801 10.08224,-2.64356 2.17595,10.07263 7.13424,13.86152 2.66975,3.56613 4.17561,10.28943 -2.30084,10.81846 -3.98292,3.78081 -2.8441,8.96655 1.98163,11.76068 2.98907,4.69648 -4.74987,1.86207 -1.89515,7.00113 2.6064,3.60461 4.40976,6.28708 1.40912,10.4362 1.77299,6.88919 -1.83382,13.84245 1.41578,20.71507 0.76701,7.01597 1.03932,14.34278 -0.27507,21.51919 -0.28703,8.21072 -7.53524,8.23829 -13.82853,9.40897 -5.93904,1.49516 -12.01161,-1.14937 -18.03873,-1.12165 -6.50647,0.85089 -12.53847,-2.10983 -18.99014,-2.03522 -6.28855,-0.79302 -13.26627,0.13402 -19.11719,-1.89105 -2.88389,-4.8374 -6.39421,-8.23313 -5.08514,-0.54052 -0.10304,5.16172 -11.91229,4.54234 -13.24733,-0.24683 -1.79656,-8.78795 -6.78298,5.43344 -12.03405,3.01681 -7.18499,3.44719 -15.624767,2.50814 -23.464188,1.98287 -6.238805,-0.13974 -12.3169,-10.90988 -17.353833,-2.0904 -5.597885,-1.35859 -11.292157,-1.81018 -16.830095,-0.60973 -2.535463,-5.77323 -2.402191,-12.37167 -1.060069,-18.38014 -0.954376,-2.98756 5.182189,-9.02848 1.802011,-14.1227 5.636721,-2.86575 -5.154479,-7.08587 -1.739077,-12.26376 -0.03464,-6.62696 3.298711,-13.01487 2.500672,-19.52512 -2.501087,-5.98866 1.485614,-4.18381 0.762995,-10.07776 1.91721,-6.2185 -0.497833,-11.62265 -1.671922,-17.53469 -0.06015,-3.88696 0.325767,-7.74382 -1.177926,-11.29834 z"
       id="path9846-3" />
    <path
       style="fill:#e0c397;fill-opacity:1;stroke:none;stroke-width:0.275806px;stroke-linecap:butt;stroke-linejoin:miter;stroke-opacity:1"
       d="m 22.088577,81.507817 c 3.396967,0.390687 1.512792,0.261832 5.659575,0.261832 0.249614,0 5.228971,-0.257098 5.339007,-0.198147 2.110857,1.130859 1.156015,4.903665 3.77697,5.26052 0.559387,0.07617 2.074578,-0.81544 2.476832,-1.000494 1.370851,-0.630651 2.836548,-1.343579 4.107921,-2.167739 1.23547,-0.800887 1.859695,-1.340528 3.322575,-1.542424 0.632146,-0.08724 1.299104,0.07293 1.933149,0 2.965525,-0.34107 5.936539,-0.713196 8.940763,-0.583624 1.5568,0.06715 3.04293,0.533445 4.591205,0.666997 1.080917,0.09324 2.063865,-0.01912 3.141353,0.16675 2.252772,0.388639 0.325684,0.503885 1.502222,0.595849 1.492124,0.116636 3.0538,0.382475 4.549338,0.416876 1.840729,0.04233 3.716438,-0.09616 5.557785,-0.166749 2.683218,-0.102866 5.278735,0.527256 7.974193,0.333496 0.972044,-0.06987 1.927479,-0.308097 2.899718,-0.375186 1.607416,-0.110923 3.221724,0.098 4.832841,0.08338 1.190778,-0.01083 1.219225,-0.279967 2.41642,-0.125065 0.572639,0.0741 1.115231,0.339679 1.691501,0.375185 1.207216,0.07437 2.417133,-0.236188 3.624635,-0.16675 1.20663,0.06939 2.41357,0.263857 3.62464,0.333499 1.11453,0.06409 2.2782,-0.110993 3.38301,-0.04169 2.50001,0.156831 5.0015,0.524627 7.4909,0.708684 1.50076,0.110959 3.09279,-0.115472 4.59121,0.08338 1.53792,0.204091 3.06608,0.779073 4.5912,1.042186 3.74779,0.646567 7.58176,-0.741129 11.31928,0.32826 0.99922,0.285901 2.05961,1.158416 3.02053,1.584117 0.53323,0.236232 2.80766,-1.523382 3.42294,-1.806434 0.64706,-0.297681 1.3796,-0.355508 2.05396,-0.583618 0.50367,-0.170373 0.9206,-0.619951 1.44987,-0.666997 2.50319,-0.222506 5.21178,-0.29351 7.71451,-0.374467 0.82788,-0.02679 1.59113,0.512434 2.41642,0.583621 0.25449,0.02195 0.47115,-0.220934 0.72493,-0.250124 0.48016,-0.05522 0.9666,-0.0052 1.44984,0 3.37351,0.03637 9.0819,-1.225039 11.71967,1.167244 0.41662,0.377847 0.68891,0.895113 1.08739,1.292305 0.32983,0.328749 0.78717,0.519081 1.0874,0.875431 0.77092,0.915019 1.06152,2.370272 1.63109,3.418349 0.81976,1.508485 0.41052,0.516101 1.32901,1.709181 1.63952,2.129671 1.35533,6.42625 0.60413,8.796019 -0.11214,0.35375 -1.9428,2.93055 -2.20266,3.28654 -0.55594,0.76159 -1.74427,1.58175 -2.11439,2.50124 -0.71042,1.7649 -0.35009,3.70534 -0.23844,5.5546 0.0571,0.94557 -0.0929,2.36224 0.18123,3.33499 0.0846,0.3002 0.33771,0.53368 0.42287,0.83373 0.0597,0.2103 -0.0943,0.45914 0,0.65616 0.63259,1.32138 2.70067,1.95424 3.11263,3.38269 0.1243,0.43101 0.0551,0.90357 0.18125,1.334 0.38897,1.32624 1.19806,2.50423 1.57066,3.83522 0.27403,0.97886 0.42177,1.99191 0.5437,3.00148 0.11994,0.99318 -0.0903,2.00513 0,3.00148 0.0214,0.2357 0.22454,0.43097 0.24165,0.66701 0.0243,0.33506 -0.13019,0.66466 -0.12083,1.00048 0.011,0.39365 0.18123,0.77344 0.18123,1.16725 0,1.68689 -0.30461,0.68114 -0.6041,2.33447 -0.0694,0.38277 0.0745,0.78547 0,1.16726 -0.0694,0.35565 -0.32203,0.65255 -0.42287,1.00049 -0.20143,0.69497 -0.90746,3.9696 -1.02699,4.83572 -0.30751,2.22799 0.58024,4.32732 0.60412,6.5032 0.0146,1.3353 -0.18125,2.66659 -0.18125,4.00199 0,0.50391 0.18125,0.9968 0.18125,1.50072 0,0.44881 -0.12084,0.88933 -0.18125,1.33399 -0.0805,0.88933 -0.26393,1.77524 -0.24163,2.66798 0.038,1.52244 0.55594,3.16912 0.84575,4.66897 0.0944,0.48897 0.0797,2.31304 0.24164,2.83474 0.0612,0.19701 0.30836,0.30114 0.36245,0.50024 0.38786,1.42756 0.30279,6.3082 0.006,7.77491 -0.20887,1.03396 -0.20739,2.90198 -1.26841,3.50099 -0.61081,0.34484 -1.33007,0.44159 -1.99356,0.66699 -3.23253,1.09817 -6.53135,1.67325 -9.90734,2.08437 -2.3336,0.28419 -4.66212,0.8418 -7.00762,1.00049 -1.86786,0.12637 -3.63906,-0.42265 -5.49738,-0.54193 -2.00766,-0.12887 -4.03099,-0.21021 -6.04107,-0.33351 -2.24446,-0.13766 -1.939,-0.42086 -4.89323,-0.83373 -0.45876,-0.0641 -0.92852,0.0454 -1.38947,0 -0.67042,-0.0661 -1.32498,-0.25046 -1.99353,-0.3335 -1.34918,-0.13895 -2.69835,-0.27791 -4.04753,-0.41687 -0.64437,0 -1.2919,0.0641 -1.93314,0 -2.03119,-0.20314 -4.05953,-0.57425 -6.10144,-0.75038 -2.40539,-0.20747 -4.74022,-0.11969 -7.00764,-1.12554 -4.54844,-2.01776 -1.05519,-0.51429 -3.56423,-2.33448 -1.07966,-0.78325 -2.0503,-0.98015 -3.26218,-1.58413 -2.5673,-1.27949 -4.54664,-2.44222 -7.4305,-2.87642 -0.70666,-0.10638 -1.03552,0.0178 -1.69149,0.20843 -0.50521,0.14678 -1.05571,0.19241 -1.510268,0.45856 -1.644301,0.96275 -1.150263,5.50816 -4.046791,5.9838 -1.471067,0.24155 -3.385789,-0.3085 -4.591203,-0.95881 -0.365171,-0.19702 -0.560146,-0.61491 -0.845757,-0.91711 -1.119143,-1.18416 -2.535582,-2.43556 -4.293574,-2.08437 -0.927785,0.18532 -1.794521,0.65664 -2.718467,0.83373 -0.535206,0.10263 -0.496982,-0.17401 -1.140217,0 -2.595767,0.70228 -5.196731,2.00109 -7.743669,2.81511 -0.262856,0.084 -3.974012,1.01663 -4.107922,1.04218 -1.212332,0.2314 -0.142829,-0.43214 -1.691499,0.29181 -1.144216,0.53488 -0.51217,0.48945 -1.389441,1.04219 -1.641925,1.0345 -4.12012,2.12033 -6.101469,2.33447 -4.227318,0.45691 -6.375009,-0.25662 -10.14898,-1.75086 -1.321279,-0.52314 -2.792157,-1.09808 -4.107932,-1.66748 -2.263004,-0.97933 -3.982316,-2.20643 -6.524341,-2.37618 -3.400409,-0.22708 -6.99712,-0.16779 -10.390626,0.16677 -1.588947,0.15664 -3.034353,1.29526 -4.591206,1.41735 -0.937402,0.0736 -3.71912,-0.13722 -4.409969,-1.00048 -2.138216,-2.67188 -1.20478,-1.6297 -1.449853,-4.33548 -0.06239,-0.68882 -0.362472,-1.35101 -0.362472,-2.04269 0,-1.66481 0.695448,-2.80558 0.845756,-4.33546 0.05299,-0.5393 -0.08482,-1.09065 0,-1.62581 0.1483,-0.93564 0.897186,-1.60136 1.329029,-2.37617 0.309988,-0.55616 0.383495,-1.22098 0.66452,-1.79255 1.649833,-3.35556 3.117339,-5.15104 3.322576,-9.04611 0.107681,-2.04362 -0.258428,-7.24174 -1.449852,-8.83771 -1.067892,-1.43047 -2.736634,-1.67197 -3.926685,-2.87642 -0.435408,-0.44066 -0.280613,-0.64648 -0.600301,-1.11505 -0.09754,-0.14295 -0.537024,-0.70967 -0.543696,-0.83373 -0.0068,-0.12498 0.248847,0.35726 0.287972,0.23847 0.115957,-0.35209 -0.04023,-0.74412 0,-1.11285 0.08096,-0.74198 0.150614,-1.4941 0.362472,-2.20942 0.485046,-1.6377 1.109845,-3.23025 1.691488,-4.83572 0.447871,-1.23623 1.310277,-2.45591 1.812325,-3.66846 1.109302,-2.67924 1.80043,-5.48187 2.295597,-8.33746 0.946545,-5.45863 -0.968301,-8.90134 -1.7519,-14.17366 -0.248438,-1.67155 0.242841,-3.35154 0.362459,-5.002481 0.119636,-1.651198 0.152917,-3.307618 0.241648,-4.960785 0.057,-1.061931 0.206006,-2.688752 0.06041,-3.710163 -0.05114,-0.358778 -0.316717,-0.654167 -0.422884,-1.000494 -0.467461,-1.524904 -0.800164,-3.256839 -0.966569,-4.835714 -0.186174,-1.766453 -0.200371,-2.04585 -0.811413,-3.850738 z"
       id="path10289" />
    <path
       style="fill:#fdeece;fill-opacity:1;stroke:none;stroke-width:0.289254px;stroke-linecap:butt;stroke-linejoin:miter;stroke-opacity:1"
       d="m 24.163788,84.076278 c 1.240157,-0.442668 2.320973,0.133797 3.570218,0.194186 2.015156,0.09741 3.538044,0.164623 5.500493,0.841986 1.392134,0.480513 1.884542,2.736575 3.501428,3.049214 1.421466,0.274852 2.867455,-0.419017 4.187868,-0.753351 2.794045,-0.70747 5.664514,-1.314217 8.500752,-1.816921 2.256321,-0.39992 0.242215,-0.04417 2.50023,-0.08864 3.061322,-0.0603 -2.117209,-0.423583 3.000259,-0.310206 0.672049,0.01489 1.328585,0.23613 2.000175,0.265888 1.761937,0.07807 3.526103,-0.617886 5.25046,-0.79767 0.746288,-0.07781 1.501086,0.03905 2.250204,0 3.209872,-0.167332 6.523825,-0.355385 9.750864,-0.132947 5.330378,0.367421 1.390077,-0.05387 5.000446,0.930617 3.384572,0.922915 -0.378793,-0.295594 3.000262,0.265891 0.336378,0.0559 3.306481,0.851007 4.000347,1.152191 1.199822,0.520805 2.835823,1.380482 3.875345,2.215751 0.727977,0.58494 1.448329,1.492666 2.437725,1.683968 4.533666,0.876608 9.339336,-2.615169 13.688686,-3.102048 0.82869,-0.09277 1.66688,0.06278 2.50022,0.04432 3.35599,-0.07435 6.88831,-1.079979 10.2509,-0.39884 1.49536,0.30291 2.77164,0.852501 4.2504,1.196511 2.42995,0.565288 5.02292,0.722484 7.50065,0.576093 2.48211,-0.146647 5.04234,-1.083284 7.50064,-1.373764 2.61569,-0.309077 5.37522,-0.215685 8.00072,-0.531777 1.78715,-0.215159 1.90756,-0.444749 3.50033,-0.709042 1.95389,-0.324217 4.04822,-0.197913 6.00052,0.04432 1.18806,0.147405 2.65155,0.479192 3.75034,0.974931 1.12443,0.507311 0.63507,0.672238 2.06266,1.019248 0.30425,0.07396 0.64855,-0.122964 0.9376,0 0.11883,0.05056 -0.0758,0.291444 0,0.398838 0.46649,0.66147 1.34558,0.898207 1.87515,1.506709 0.28484,0.327289 0.378,0.793538 0.62505,1.152191 0.19374,0.281264 0.53788,0.444631 0.68757,0.753354 0.096,0.198045 -0.12623,0.485735 0,0.664724 0.3234,0.458585 0.96504,0.62282 1.25011,1.107879 0.40375,0.686993 -0.16818,2.540077 0,3.323625 0.20794,0.968787 0.67541,1.865499 0.87508,2.836163 0.0951,0.46233 -0.0552,0.94884 0,1.41807 0.0498,0.4243 0.25511,0.81755 0.31251,1.24082 0.13192,0.97269 0.0531,2.20905 0,3.19068 -0.0627,1.15469 -0.38793,2.25378 -0.56254,3.36795 -0.27896,1.77985 -0.31253,3.37046 -0.31253,5.14054 0,0.88628 -0.2708,4.85511 0,5.49506 0.359,0.84838 1.07695,1.4883 1.50015,2.3044 1.13646,2.19158 2.38046,4.32861 3.75032,6.38136 -6.77781,6.52804 -2.47082,7.94724 -2.96235,10.59279 -0.60804,1.97068 3.58269,6.67963 2.89985,8.37403 -0.77444,1.9217 -0.24599,3.27019 -0.56256,5.14056 -0.18247,1.07816 -0.58237,2.10995 -0.75005,3.19067 -0.34397,2.21699 1.29163,4.5679 1.50013,6.73589 0.0624,0.64818 -0.10211,1.29891 -0.12502,1.94986 -0.0333,0.94476 0.083,1.89468 0,2.83616 -0.17236,1.95526 -0.91192,3.80881 -1.43763,5.67233 -0.22264,0.78923 -0.18439,1.60789 -0.68757,2.30439 -0.22718,0.31447 -0.62192,0.46086 -0.87506,0.75334 -1.59618,1.84416 -2.39899,3.84334 -4.68792,5.18485 -1.46596,0.85919 -8.50852,-1.61378 -9.87588,-2.26005 -0.62549,-0.29566 -1.17833,-0.74443 -1.81263,-1.01926 -1.64653,-0.71338 -5.92313,-1.87007 -7.18815,-2.21575 -3.72449,-1.01771 -6.01089,-0.53617 -9.75087,-0.22158 -1.14216,0.0961 -2.29896,-0.13182 -3.43779,0 -0.52995,0.0614 -1.03002,0.32756 -1.56263,0.35453 -1.77905,0.0901 -3.99127,-0.26428 -5.75053,-0.57608 -3.01575,-0.53454 -5.67403,-2.1737 -8.56326,-3.05775 -2.171,-0.82595 -4.47735,-1.14208 -6.68808,-1.81691 -4.54051,-1.38601 -0.44912,-0.24299 -5.56299,-2.21576 -1.7918,-0.69121 -4.08544,-0.32698 -5.938016,-0.26588 -0.75023,0.0248 -1.504067,-0.17335 -2.250199,-0.0886 -0.699534,0.0795 -2.348314,1.39451 -2.831109,1.65837 -0.905703,0.49496 -1.794861,1.03597 -2.750244,1.41807 -0.380827,0.15231 -0.81053,0.14819 -1.187597,0.31021 -0.975016,0.41895 -1.076507,1.03582 -1.875171,1.63964 -0.0185,0.014 -0.461865,-0.0103 -0.526682,0 -1.549644,0.23593 -2.730997,0.14577 -4.256151,0.12325 -0.667267,-0.0103 -1.333636,0.12239 -2.000171,0.0886 -1.409634,-0.0714 -2.834261,-0.51744 -4.250376,-0.62043 -2.552049,-0.18559 -5.204671,-0.3513 -7.750693,0.0444 -2.907234,0.45177 -5.670082,1.82263 -8.500753,2.57028 -1.767087,0.46673 -3.701887,0.84495 -5.500488,1.06355 -0.724252,0.0881 -1.463499,-0.0885 -2.187695,0 -1.587485,0.19406 -3.212898,0.61156 -4.812925,0.75336 -2.472786,0.21914 -5.106548,-0.63073 -7.50065,-1.19651 -0.83888,-0.19824 -1.644258,-0.5737 -2.50023,-0.66473 -2.472177,-0.26291 -8.406889,-0.97224 -9.875865,-3.41225 -1.240898,-2.06118 -2.250205,-6.64078 -2.250205,-9.12891 0,-0.94539 0.08704,-1.89507 0,-2.83615 -0.0194,-0.20956 -0.166686,-0.38408 -0.250028,-0.57611 -0.166681,-0.82721 -0.43887,-1.639 -0.500042,-2.48162 -0.08557,-1.17861 0.07639,-2.36337 0.06251,-3.54521 -0.007,-0.5924 -0.20545,-1.18604 -0.125014,-1.7726 0.127118,-0.927 0.740001,-1.73312 0.875087,-2.65892 0.341336,-2.33934 0.454895,-5.25415 0.125012,-7.62217 -0.139626,-1.0023 -0.628959,-0.90617 -1.062592,-1.7726 -0.756249,-1.51103 0.822976,0.49252 -0.250029,-0.8863 -0.238023,-0.30586 -0.517527,-0.57596 -0.750074,-0.88631 -0.12285,-0.16395 -0.144824,-0.41806 -0.312519,-0.53177 -0.07278,-0.0494 -0.190938,0.29111 -0.171992,0.20324 0.227593,-1.05572 0.536226,-2.09097 0.804338,-3.13646 0.416705,-1.2999 0.940237,-2.56822 1.250116,-3.89972 0.379668,-1.63137 0.457304,-3.32605 0.812577,-4.96327 1.176194,-5.42033 0.375375,2.56139 1.187594,-5.14055 0.140921,-1.33629 -0.08504,-2.69133 0,-4.03266 0.222359,-3.50756 0.774556,-6.98607 0.125016,-10.50269 -0.568011,-3.07518 -1.226296,-3.47224 -2.375203,-6.381344 -0.841582,-2.130938 -0.09575,-4.87541 -0.500057,-7.090401 -0.07071,-0.387396 -0.408184,-0.680945 -0.500043,-1.063561 -0.07916,-0.329727 0.07466,-0.688398 0,-1.019244 -0.178123,-0.789288 -0.543307,-1.522601 -0.750058,-2.304382 -0.188367,-0.712266 0.09334,-1.627424 0.0625,-2.348698 -0.0061,-0.140584 -0.264067,-0.838411 -0.125013,-1.019244 0.175241,-0.227896 0.712501,-0.161097 0.72251,-0.45214 2e-6,-6.8e-5 10e-6,-6.8e-5 10e-6,-6.8e-5 z"
       id="path10324"
       sodipodi:nodetypes="csssssssssssssssssssssssssssscssssssscscssssccsssccssscssssscsccssccsssscccscsccsssssscscsssssscccsssssssssscsccc" />
  </g>
</svg>
